<?xml version="1.0" encoding="UTF-8" standalone="no"?>
<svg
   xmlns:dc="http://purl.org/dc/elements/1.1/"
   xmlns:cc="http://creativecommons.org/ns#"
   xmlns:rdf="http://www.w3.org/1999/02/22-rdf-syntax-ns#"
   xmlns:svg="http://www.w3.org/2000/svg"
   xmlns="http://www.w3.org/2000/svg"
   viewBox="0 0 400 137.90668"
   height="137.90668"
   width="400"
   xml:space="preserve"
   id="svg2"
   version="1.1"><metadata
     id="metadata8"><rdf:RDF><cc:Work
         rdf:about=""><dc:format>image/svg+xml</dc:format><dc:type
           rdf:resource="http://purl.org/dc/dcmitype/StillImage" /></cc:Work></rdf:RDF></metadata><defs
     id="defs6" /><g
     transform="matrix(1.3333333,0,0,-1.3333333,0,137.90667)"
     id="g10"><g
       transform="scale(0.1)"
       id="g12"><path
         id="path14"
         style="fill:#ffffff;fill-opacity:1;fill-rule:nonzero;stroke:none"
         d="M 70.2305,964.168 H 2929.78 V 70.1445 H 1719.46 V 217.477 h -67.85 V 70.1445 H 70.2305 Z M 0,0 H 3000 V 1034.31 H 0 V 0 0" /><path
         id="path16"
         style="fill:#ffffff;fill-opacity:1;fill-rule:nonzero;stroke:none"
         d="M 608.461,701.133 H 531.563 L 397.859,357.195 h 76.852 l 35.102,95.379 H 630.68 l 34.609,-95.379 h 76.906 z M 530.512,515.57 569.984,623.348 609.051,515.57 h -78.539 v 0" /><path
         id="path18"
         style="fill:#ffffff;fill-opacity:1;fill-rule:nonzero;stroke:none"
         d="m 1276.14,701.133 v -68.309 h 120.4 V 357.195 h 72.42 v 275.629 h 120.89 v 68.309 h -313.71 v 0" /><path
         id="path20"
         style="fill:#ffffff;fill-opacity:1;fill-rule:nonzero;stroke:none"
         d="m 2508.42,701.133 -87.03,-146.664 -86.53,146.664 h -84.17 l 134.77,-217.68 V 357.195 h 72.39 v 126.258 l 134.74,217.68 h -84.17 v 0" /><path
         id="path22"
         style="fill:#ffffff;fill-opacity:1;fill-rule:nonzero;stroke:none"
         d="m 2106.52,538.313 c -22.4,16.359 -53.05,23.859 -80.11,30.503 -5.62,1.383 -11.11,2.707 -16.44,4.11 l -3.34,0.851 c -22.04,5.547 -52.24,13.153 -52.24,39.473 0,28.152 32.8,35.648 52.16,35.648 21.97,0 49.56,-6.582 56.32,-37.968 l 0.2,-1.055 h 68.21 l -0.04,1.359 c -2.3,63.477 -46.82,99.883 -122.13,99.883 -56.1,0 -121.58,-26.179 -121.58,-99.922 0,-76.769 68.34,-93.191 128.62,-107.699 5.54,-1.344 10.97,-2.648 16.28,-3.984 30.72,-8.028 46.31,-22.282 46.31,-42.379 0,-43.231 -56.69,-45.426 -68.07,-45.426 -39.85,0 -61.49,14.856 -68.13,46.727 l -0.2,1.035 h -69.26 l 0.07,-1.34 c 0.51,-27.274 3.83,-43.887 21.38,-64.512 33.28,-38.797 86.06,-44.597 114.58,-44.597 65.76,0 136.51,34.148 136.51,109.152 0,31.867 -14.97,62.578 -39.1,80.141" /><path
         id="path24"
         style="fill:#ffffff;fill-opacity:1;fill-rule:nonzero;stroke:none"
         d="m 1114.24,503.477 c 26.3,19.179 42.62,53.125 42.62,88.574 0,38.332 -19.75,73.945 -51.51,92.844 -26.93,16.238 -54.15,16.238 -80.49,16.238 H 869.742 V 357.195 h 72.895 V 527.211 L 1077.92,357.195 h 88.3 l -103.01,126.203 c 18.45,3.188 33.79,7.497 51.03,20.079 m -171.603,39.308 v 93.535 l 81.903,0.02 c 16.28,0 30.7,-0.692 42.35,-9.106 10.99,-8.027 17.53,-22.117 17.53,-37.683 0,-31.035 -22.15,-46.766 -65.84,-46.766 h -75.943 v 0" /></g></g></svg>